<?xml version="1.0" standalone="no"?>
<!DOCTYPE svg PUBLIC "-//W3C//DTD SVG 20010904//EN"
 "http://www.w3.org/TR/2001/REC-SVG-20010904/DTD/svg10.dtd">
<svg version="1.0" xmlns="http://www.w3.org/2000/svg"
 width="626.000000pt" height="626.000000pt" viewBox="0 0 626.000000 626.000000"
 preserveAspectRatio="xMidYMid meet">
<metadata>
Created by potrace 1.11, written by Peter Selinger 2001-2013
</metadata>
<g transform="translate(0.000000,626.000000) scale(0.100000,-0.100000)"
fill="#000000" stroke="none">
<path d="M3715 5927 c-220 -73 -309 -341 -174 -527 17 -23 27 -46 22 -50 -4
-4 -46 -13 -93 -19 -262 -35 -619 -188 -855 -366 -416 -313 -711 -773 -814
-1265 -39 -186 -45 -247 -45 -445 l-1 -200 182 -3 c209 -3 188 -16 198 118 21
282 106 656 196 867 21 51 39 95 39 98 0 8 122 227 157 283 141 220 401 465
643 604 127 73 406 195 418 184 2 -2 -14 -17 -35 -32 -137 -103 -294 -234
-392 -329 -112 -109 -275 -304 -339 -407 -49 -77 -176 -341 -207 -428 -83
-232 -144 -531 -180 -893 l-7 -67 1723 2 1724 3 3 150 c10 492 -157 985 -464
1370 -286 359 -641 594 -1082 719 -51 15 -129 31 -175 37 -45 6 -86 15 -91 20
-5 5 3 23 19 45 95 124 86 314 -20 431 -62 70 -138 106 -234 110 -45 2 -92 -3
-116 -10z"/>
<path d="M1370 2705 l0 -215 2445 0 2445 0 0 215 0 215 -2445 0 -2445 0 0
-215z"/>
<path d="M2550 2325 c-892 -34 -834 -30 -940 -69 -52 -18 -192 -69 -310 -111
-118 -43 -237 -86 -265 -96 -49 -18 -50 -19 -47 -56 1 -21 13 -105 27 -188 13
-82 38 -240 55 -350 17 -110 40 -252 50 -315 11 -63 24 -153 31 -200 18 -129
21 -133 53 -81 16 24 58 74 94 110 106 105 91 103 602 91 794 -18 1159 -11
1245 25 52 22 242 127 325 180 36 23 121 77 190 120 281 176 831 548 847 571
27 42 28 112 1 163 -30 58 -65 83 -126 89 -55 5 -84 -3 -222 -63 -103 -44
-243 -101 -365 -148 -49 -19 -121 -47 -159 -62 -65 -25 -169 -64 -326 -120
-36 -13 -90 -32 -120 -44 -43 -15 -71 -19 -130 -15 -466 30 -724 46 -820 51
-114 6 -114 6 -75 20 56 20 281 81 545 147 300 76 335 94 347 184 7 50 -28
132 -65 154 -43 25 -77 26 -442 13z"/>
<path d="M770 2034 c-8 -1 -82 -15 -165 -29 -82 -15 -208 -37 -280 -50 -72
-13 -174 -31 -227 -40 l-98 -17 0 -790 0 -790 27 6 c45 8 284 53 463 86 91 17
221 42 290 55 69 13 169 32 224 41 54 10 100 24 103 30 2 7 -9 88 -27 181 -17
92 -42 229 -56 303 -13 74 -38 209 -55 300 -17 91 -43 235 -59 320 -79 433
-71 400 -99 399 -15 -1 -33 -3 -41 -5z"/>
</g>
</svg>
